<?xml version="1.0" encoding="UTF-8"?>
<svg id="Layer_2" xmlns="http://www.w3.org/2000/svg" viewBox="0 0 811.59 811.59">
  <defs>
    <style>
      .cls-1 {
        fill: #c89b54;
      }
    </style>
  </defs>
  <g id="Layer_1-2" data-name="Layer_1">
    <path class="cls-1" d="M439.93,84.89c-6.48-22.39-12.69-46.58-18.84-72.78-3.79-16.15-26.8-16.15-30.59,0-6.15,26.2-12.36,50.39-18.84,72.78l-12.53,39.98c-44.22,129.68-104.57,190.02-234.24,234.24l-39.99,12.53c-22.39,6.48-46.58,12.69-72.78,18.84-16.15,3.79-16.15,26.8,0,30.59,26.2,6.15,50.39,12.36,72.78,18.84l39.99,12.53c129.68,44.23,190.02,104.57,234.24,234.24l12.53,39.98c6.48,22.39,12.69,46.58,18.84,72.78,3.79,16.15,26.8,16.15,30.59,0,6.15-26.2,12.36-50.39,18.84-72.78l12.54-39.98c44.23-129.67,104.57-190.02,234.24-234.24l39.98-12.53c22.39-6.48,46.58-12.69,72.78-18.84,16.15-3.79,16.15-26.8,0-30.59-26.2-6.15-50.39-12.36-72.78-18.84l-39.98-12.53c-129.67-44.23-190.02-104.57-234.24-234.24l-12.54-39.98Z"/>
  </g>
</svg>