<?xml version="1.0" encoding="UTF-8"?>
<svg id="Layer_2" xmlns="http://www.w3.org/2000/svg" viewBox="0 0 811.59 811.59">
  <defs>
    <style>
      .cls-1 {
        fill: #c89b54;
      }
    </style>
  </defs>
  <g id="Layer_1-2" data-name="Layer_1">
    <path class="cls-1" d="M799.47,390.5c-26.2-6.15-50.39-12.36-72.78-18.84-3.3-31.52-11.18-62.16-23.58-91.47-16.25-38.43-39.52-72.93-69.15-102.57-29.63-29.63-64.14-52.89-102.57-69.15-29.31-12.4-59.96-20.27-91.47-23.58-6.48-22.39-12.69-46.58-18.84-72.78-3.79-16.15-26.8-16.15-30.59,0-6.15,26.2-12.36,50.39-18.84,72.78-31.52,3.3-62.16,11.18-91.47,23.58-38.43,16.25-72.94,39.52-102.57,69.15s-52.89,64.14-69.15,102.57c-12.4,29.31-20.27,59.96-23.58,91.47-22.39,6.48-46.58,12.69-72.78,18.84-16.15,3.79-16.15,26.8,0,30.59,26.2,6.15,50.39,12.36,72.78,18.84,3.3,31.52,11.18,62.16,23.58,91.47,16.25,38.43,39.52,72.94,69.15,102.57s64.14,52.89,102.57,69.15c29.31,12.4,59.96,20.28,91.47,23.58,6.48,22.39,12.69,46.58,18.84,72.78,3.79,16.15,26.8,16.15,30.59,0,6.15-26.2,12.36-50.39,18.84-72.78,31.52-3.3,62.16-11.18,91.47-23.58,38.43-16.25,72.94-39.52,102.57-69.15s52.89-64.14,69.15-102.57c12.4-29.31,20.28-59.96,23.58-91.47,22.39-6.48,46.58-12.69,72.78-18.84,16.15-3.79,16.15-26.8,0-30.59ZM516.62,143.43c33.9,14.34,64.35,34.87,90.51,61.03,26.16,26.15,46.69,56.61,61.03,90.51,8.75,20.69,14.94,42.15,18.56,64.15-129.67-44.23-190.02-104.57-234.24-234.24,22,3.62,43.46,9.81,64.15,18.56ZM143.44,294.97c14.34-33.9,34.87-64.35,61.03-90.51,26.15-26.15,56.61-46.69,90.51-61.03,20.69-8.75,42.15-14.94,64.15-18.56-44.22,129.68-104.57,190.02-234.24,234.24,3.62-22,9.81-43.46,18.56-64.15ZM294.97,668.15c-33.9-14.34-64.36-34.87-90.51-61.03-26.15-26.15-46.69-56.61-61.03-90.51-8.75-20.69-14.94-42.15-18.56-64.15,129.68,44.23,190.02,104.57,234.24,234.24-22-3.62-43.46-9.81-64.15-18.56ZM668.15,516.61c-14.34,33.9-34.87,64.35-61.03,90.51-26.15,26.16-56.61,46.69-90.51,61.03-20.69,8.75-42.15,14.94-64.15,18.56,44.23-129.67,104.57-190.02,234.24-234.24-3.62,22-9.81,43.46-18.56,64.15Z"/>
  </g>
</svg>