<?xml version="1.0" encoding="UTF-8"?>
<svg id="Layer_2" xmlns="http://www.w3.org/2000/svg" viewBox="0 0 811.58 811.58">
  <defs>
    <style>
      .cls-1 {
        fill: #c89b54;
      }
    </style>
  </defs>
  <g id="Layer_1-2" data-name="Layer_1">
    <g>
      <path class="cls-1" d="M799.47,390.49c-253.46-59.48-318.9-124.92-378.38-378.38-3.79-16.15-26.8-16.15-30.59,0-59.48,253.46-124.93,318.9-378.38,378.38-16.15,3.79-16.15,26.8,0,30.59,253.46,59.48,318.9,124.92,378.38,378.38,3.79,16.15,26.8,16.15,30.59,0,59.48-253.46,124.93-318.9,378.38-378.38,16.15-3.79,16.15-26.8,0-30.59Z"/>
      <path class="cls-1" d="M516.61,143.43c33.9,14.34,64.35,34.87,90.51,61.03,26.16,26.15,46.69,56.6,61.03,90.51,5.6,13.24,10.16,26.8,13.65,40.61,12.95,4.67,26.83,9.21,41.75,13.68-4.17-23.66-11-46.77-20.44-69.08-16.25-38.43-39.52-72.93-69.15-102.57-29.64-29.63-64.14-52.89-102.57-69.14-22.32-9.44-45.42-16.26-69.08-20.44,4.47,14.92,9.02,28.8,13.68,41.75,13.81,3.5,27.37,8.05,40.61,13.65Z"/>
      <path class="cls-1" d="M143.43,294.97c14.34-33.9,34.87-64.35,61.03-90.51,26.15-26.16,56.6-46.69,90.51-61.03,13.24-5.6,26.8-10.16,40.61-13.65,4.67-12.95,9.21-26.83,13.68-41.75-23.67,4.17-46.77,11-69.08,20.44-38.43,16.25-72.93,39.52-102.57,69.14-29.63,29.64-52.89,64.14-69.15,102.57-9.44,22.32-16.26,45.42-20.44,69.08,14.92-4.47,28.8-9.02,41.75-13.68,3.49-13.81,8.05-27.37,13.65-40.61Z"/>
      <path class="cls-1" d="M294.97,668.15c-33.9-14.34-64.35-34.87-90.51-61.03-26.16-26.15-46.69-56.6-61.03-90.51-5.6-13.24-10.16-26.8-13.65-40.61-12.95-4.67-26.83-9.21-41.75-13.68,4.17,23.66,11,46.77,20.44,69.08,16.25,38.43,39.52,72.93,69.15,102.57,29.64,29.63,64.14,52.89,102.57,69.15,22.32,9.44,45.42,16.26,69.08,20.44-4.47-14.92-9.02-28.79-13.68-41.75-13.81-3.5-27.37-8.05-40.61-13.65Z"/>
      <path class="cls-1" d="M668.15,516.61c-14.34,33.9-34.87,64.35-61.03,90.51-26.15,26.16-56.6,46.69-90.51,61.03-13.24,5.6-26.8,10.16-40.61,13.65-4.67,12.95-9.21,26.83-13.68,41.75,23.67-4.17,46.77-11,69.08-20.44,38.43-16.25,72.93-39.52,102.57-69.15,29.63-29.64,52.89-64.14,69.15-102.57,9.44-22.32,16.26-45.42,20.44-69.08-14.92,4.47-28.8,9.02-41.75,13.68-3.49,13.81-8.05,27.37-13.65,40.61Z"/>
    </g>
  </g>
</svg>