<?xml version="1.0" encoding="UTF-8"?>
<svg id="Calque_2" xmlns="http://www.w3.org/2000/svg" viewBox="0 0 116.04 55.39">
  <defs>
    <style>
      .cls-1 {
        fill: #231f20;
      }
    </style>
  </defs>
  <g id="Layer_2">
    <g>
      <g>
        <path class="cls-1" d="M61.45,0c28.01,22.74,9.62,22.71.21,27.09l6.5-10.93-10.03-8.74-10.03,8.74,6.5,10.93c-9.42-4.38-27.81-4.36.21-27.09l-25.87,10.66,1.42,4.69.53,8.15,3.41,7.41h47.68l3.41-7.41.53-8.15,1.42-4.69L61.45,0ZM59.29,18.78l-1.08,3.1h-.12l-1.08-3.1-2.1-2.61,3.25-2.83,3.25,2.83-2.1,2.61Z"/>
        <rect class="cls-1" x="34.28" y="32.51" width="47.68" height="4.72"/>
      </g>
      <g>
        <g>
          <path class="cls-1" d="M31.64,55.06c.33-.42.5-.63.83-1.05,0-4.8,0-7.2,0-12-.33-.43-.5-.64-.83-1.06,2.85,0,4.27,0,7.12,0,4.93,0,7.4,2.37,7.4,7.12,0,4.67-2.44,7-7.31,7-2.89,0-4.33,0-7.22,0ZM36.44,52.14h1.9c2.46,0,3.69-1.37,3.69-4.1,0-2.77-1.26-4.16-3.78-4.16-.72,0-1.08,0-1.8,0,0,3.3,0,4.96,0,8.26Z"/>
          <path class="cls-1" d="M46.88,40.94c2.23,0,3.35,0,5.59,0-.31.41-.47.61-.78,1.02,0,4.84,0,7.26,0,12.1.31.41.47.61.78,1.02-2.23,0-3.35,0-5.59,0,.33-.43.5-.64.83-1.06,0-4.8,0-7.2,0-12-.33-.43-.5-.64-.83-1.06Z"/>
          <path class="cls-1" d="M60.88,40.72c5.02,0,7.53,2.45,7.53,7.34,0,4.83-2.46,7.25-7.39,7.25-5.15,0-7.72-2.47-7.72-7.4,0-4.79,2.53-7.19,7.58-7.19ZM57.39,47.88c0,2.96,1.2,4.44,3.59,4.44,2.22,0,3.33-1.42,3.33-4.26,0-2.9-1.17-4.36-3.5-4.36s-3.42,1.39-3.42,4.17Z"/>
          <path class="cls-1" d="M69.71,40.94c1.66,0,2.5,0,4.16,0,2.73,3.26,4.09,4.89,6.82,8.15,0-2.86,0-4.28,0-7.14-.31-.41-.46-.61-.77-1.02,1.87,0,2.8,0,4.67,0-.33.43-.49.64-.82,1.06,0,5.23,0,7.84,0,13.07h-2.98c-2.89-3.32-4.34-4.98-7.23-8.3,0,2.89,0,4.34,0,7.24.33.43.49.64.82,1.06-1.87,0-2.8,0-4.67,0,.31-.42.47-.63.78-1.04,0-4.78,0-7.17,0-11.95-.31-.45-.47-.68-.78-1.13Z"/>
        </g>
        <path class="cls-1" d="M11.93,53.26c.66.85.98,1.28,1.64,2.13-5.32,0-7.97,0-13.29,0,5.38-6.22,8.07-9.33,13.46-15.55C8.24,34.75,5.49,32.2,0,27.11c5.35,0,8.03,0,13.38,0-.66.85-.99,1.28-1.66,2.13,3.89,3.71,5.83,5.57,9.72,9.28,0-3.75,0-5.62,0-9.37-.63-.81-.94-1.22-1.56-2.03,4.47,0,6.7,0,11.17,0-.66.85-.99,1.28-1.66,2.13,0,9.6,0,14.4,0,24,.66.85.99,1.28,1.66,2.13-4.47,0-6.7,0-11.17,0,.63-.81.94-1.22,1.56-2.03,0-2.53,0-3.8,0-6.33-.99-.91-1.48-1.37-2.47-2.29-2.82,3.41-4.23,5.12-7.05,8.54Z"/>
        <path class="cls-1" d="M97.06,44.73c-.99.91-1.48,1.37-2.47,2.29,0,2.53,0,3.8,0,6.33.63.81.94,1.22,1.56,2.03-4.47,0-6.7,0-11.17,0,.66-.85.99-1.28,1.66-2.13,0-9.6,0-14.4,0-24-.66-.85-.99-1.28-1.66-2.13,4.47,0,6.7,0,11.17,0-.63.81-.94,1.22-1.56,2.03,0,3.75,0,5.63,0,9.37,3.89-3.71,5.83-5.57,9.72-9.28-.66-.85-.99-1.28-1.66-2.13,5.35,0,8.03,0,13.38,0-5.49,5.09-8.24,7.64-13.73,12.73,5.38,6.22,8.07,9.33,13.46,15.55-5.32,0-7.97,0-13.29,0,.66-.85.98-1.28,1.64-2.13-2.82-3.41-4.23-5.12-7.05-8.54Z"/>
      </g>
    </g>
  </g>
</svg>