<?xml version="1.0" encoding="UTF-8"?>
<svg id="Layer_2" xmlns="http://www.w3.org/2000/svg" viewBox="0 0 174.4 25.36">
  <defs>
    <style>
      .cls-1 {
        fill: #010101;
      }
    </style>
  </defs>
  <g id="Layer_2-2" data-name="Layer_2">
    <g>
      <path class="cls-1" d="M8.09,18.34l-1.65,1.44v4l1.05,1.28H0l1.11-1.34v-15.16l-1.11-1.34h7.49l-1.05,1.28v5.92l6.51-5.86-1.11-1.34h8.97l-9.2,8.04,9.02,9.82h-8.91l1.1-1.34-4.72-5.39Z"/>
      <path class="cls-1" d="M28.69,7.2h6.02l8.72,17.87h-7.44l1.05-1.36-.8-1.84h-8.54l-.93,1.84,1.05,1.36h-6.45l7.92-16.53-.6-1.34ZM28.94,18.62h5.96l-2.95-6.39-3.01,6.39Z"/>
      <path class="cls-1" d="M43.72,7.21h11.18c4.54,0,6.81,1.8,6.81,5.4,0,2.94-1.35,4.74-4.05,5.4l4.85,7.06h-7.92l1.1-1.34-3.37-5.03h-2.33v5.03l1.1,1.34h-7.36l1.05-1.22v-15.43l-1.05-1.21ZM49.98,10.9v4.42h3.61c1.83,0,2.75-.76,2.76-2.27,0-1.43-.94-2.15-2.82-2.15h-3.55Z"/>
      <path class="cls-1" d="M63.48,7.21h7.49l-1.05,1.28v15.28l1.05,1.28h-7.49l1.11-1.34v-15.16l-1.11-1.34Z"/>
      <path class="cls-1" d="M82.77,25.1l-5.3-10v8.59l1.16,1.39h-6.36s.42-.51,1.27-1.49v-15.07l-.97-1.3h6.2l5.74,10.81,5.5-10.81h6.46l-1.2,1.38v15.42l.93,1.09h-7.27l1.13-1.25v-8.25l-4.81,9.5h-2.48Z"/>
      <path class="cls-1" d="M103.45,25.05l1.11-1.33v-15.16l-1.11-1.34h9.55c6.61,0,9.92,3,9.92,8.99s-3.26,8.84-9.79,8.84h-9.67ZM109.89,21.36h2.54c3.3,0,4.95-1.73,4.95-5.18s-1.69-5.25-5.07-5.25h-2.42v10.44Z"/>
      <path class="cls-1" d="M123.88,7.21h7.49l-1.05,1.28v15.28l1.05,1.28h-7.49l1.11-1.34v-15.16l-1.11-1.34Z"/>
      <path class="cls-1" d="M142.64,6.93c6.73,0,10.09,3.09,10.09,9.28s-3.3,9.15-9.9,9.15-10.35-3.12-10.35-9.35,3.39-9.08,10.16-9.08ZM137.97,15.97c0,3.74,1.6,5.61,4.81,5.61,2.98,0,4.47-1.79,4.47-5.38s-1.56-5.5-4.69-5.5-4.59,1.76-4.59,5.27Z"/>
      <path class="cls-1" d="M154.47,7.21h5.58l9.14,10.3v-9.02l-1.04-1.28h6.25l-1.1,1.34v16.5h-4l-9.68-10.48v9.14l1.1,1.34h-6.25l1.05-1.32v-15.1l-1.05-1.43Z"/>
      <g>
        <path class="cls-1" d="M143.53,0c7.97,6.47,2.74,6.46.06,7.71l1.85-3.11-2.86-2.49-2.86,2.49,1.85,3.11C138.89,6.46,133.66,6.47,141.63,0l-7.36,3.03.41,1.34.15,2.32.97,2.11h6.78s6.78,0,6.78,0l.97-2.11.15-2.32.41-1.34-7.36-3.03ZM142.91,5.34l-.31.88h-.04s-.31-.88-.31-.88l-.6-.74.92-.8.92.8-.6.74Z"/>
        <rect class="cls-1" x="135.79" y="9.25" width="13.57" height="1.34"/>
      </g>
    </g>
  </g>
</svg>